<?xml version="1.0" standalone="no"?>
<!DOCTYPE svg PUBLIC "-//W3C//DTD SVG 20010904//EN"
 "http://www.w3.org/TR/2001/REC-SVG-20010904/DTD/svg10.dtd">
<svg version="1.0" xmlns="http://www.w3.org/2000/svg"
 width="160.000000pt" height="160.000000pt" viewBox="0 0 160.000000 160.000000"
 preserveAspectRatio="xMidYMid meet">

<g transform="translate(0.000000,160.000000) scale(0.100000,-0.100000)"
fill="#000000" stroke="none">
<path d="M659 1490 c-115 -29 -205 -108 -273 -240 -78 -152 -115 -286 -131
-480 l-6 -75 109 3 109 3 -18 52 c-12 33 -18 82 -19 134 l0 82 56 63 c58 66
86 111 114 189 l16 47 71 -62 c52 -45 101 -75 174 -108 55 -25 96 -49 90 -52
-23 -15 -9 -22 42 -22 70 1 163 -42 196 -89 20 -30 22 -41 16 -91 -4 -31 -13
-74 -21 -96 -8 -22 -14 -42 -14 -44 0 -2 48 -4 106 -4 l107 0 -7 97 c-23 308
-171 581 -366 672 -49 23 -69 26 -185 28 -71 1 -146 -2 -166 -7z"/>
<path d="M541 1039 c-36 -22 -37 -38 0 -19 14 8 46 11 86 7 62 -5 64 -4 47 14
-23 26 -89 25 -133 -2z"/>
<path d="M544 955 c-22 -13 -46 -36 -53 -51 -14 -31 -4 -48 12 -19 6 11 24 32
40 48 54 50 125 30 174 -48 12 -20 12 -20 6 0 -18 55 -67 95 -115 95 -13 0
-41 -11 -64 -25z"/>
<path d="M966 961 c-31 -20 -72 -78 -63 -87 3 -3 13 8 21 25 19 36 62 61 107
61 23 0 40 -9 65 -36 19 -19 34 -42 34 -50 0 -8 5 -14 10 -14 32 0 -19 82 -64
104 -45 21 -75 20 -110 -3z"/>
<path d="M567 932 c-36 -39 -15 -100 40 -116 29 -9 73 32 73 69 0 55 -77 87
-113 47z m38 -22 c-5 -8 -11 -8 -17 -2 -6 6 -7 16 -3 22 5 8 11 8 17 2 6 -6 7
-16 3 -22z m50 -69 c-3 -6 -14 -11 -23 -11 -13 0 -13 2 4 14 21 15 30 14 19
-3z"/>
<path d="M970 923 c-48 -62 23 -140 83 -92 20 15 27 30 27 53 0 65 -70 89
-110 39z m43 -14 c-17 -17 -37 -1 -22 17 8 10 15 12 23 4 7 -7 7 -13 -1 -21z
m47 -64 c-7 -8 -19 -15 -27 -15 -10 0 -8 6 8 19 27 22 38 19 19 -4z"/>
<path d="M254 565 c0 -55 1 -76 3 -47 2 29 2 74 0 100 -2 26 -3 2 -3 -53z"/>
<path d="M1375 648 c-4 -9 -4 -22 0 -28 3 -5 2 -10 -3 -10 -4 0 -8 -39 -7 -86
1 -47 -3 -88 -7 -91 -5 -2 -4 -11 3 -19 10 -12 9 -13 -7 -7 -17 6 -17 5 -6
-10 16 -19 7 -77 -11 -77 -8 0 -7 -3 2 -9 9 -6 10 -11 2 -15 -6 -4 -8 -12 -5
-18 4 -7 9 -6 14 2 5 8 9 7 13 -4 4 -9 3 -15 -1 -15 -30 5 -41 -16 -17 -33 6
-5 6 -11 -2 -19 -6 -6 -9 -27 -6 -48 3 -24 2 -32 -5 -23 -7 11 -10 10 -16 -3
-9 -25 -7 -47 4 -40 6 3 10 1 10 -4 0 -6 -7 -11 -15 -11 -14 0 -14 -3 0 -24
l15 -23 -76 -7 c-124 -10 -920 -7 -948 4 -25 9 -26 13 -24 74 2 35 0 62 -3 61
-3 -2 -6 59 -7 137 -1 77 -4 144 -8 147 -3 3 -4 -29 -3 -71 2 -73 1 -79 -29
-113 -40 -45 -55 -74 -81 -159 -37 -119 -121 -106 664 -106 656 0 685 1 685
18 0 55 -58 194 -103 248 -27 32 -27 12 -8 249 8 101 1 168 -14 133z m-8 -460
c-2 -13 -4 -3 -4 22 0 25 2 35 4 23 2 -13 2 -33 0 -45z m-10 -130 c-2 -13 -4
-5 -4 17 -1 22 1 32 4 23 2 -10 2 -28 0 -40z"/>
</g>
</svg>
